<svg width="201" height="50" viewBox="0 0 201 50" fill="none" xmlns="http://www.w3.org/2000/svg">
  <mask id="mask0_11536_3066" style="mask-type: luminance" maskUnits="userSpaceOnUse" x="148" y="1" width="53" height="48">
    <path d="M201 1.17969H148.832V48.7446H201V1.17969Z" fill="white" />
  </mask>
  <g mask="url(#mask0_11536_3066)">
    <path
      d="M191.183 30.1415C190.933 30.6052 190.433 30.7962 189.984 30.6598C189.109 30.387 188.235 30.0597 187.36 29.8141C186.486 29.5414 185.611 29.2686 184.762 29.0231C183.013 28.532 181.264 28.0956 179.49 27.7409H179.465C178.64 27.5773 178.065 26.7316 178.215 25.8041C178.24 25.6132 178.315 25.4495 178.39 25.2858C179.265 23.5945 180.164 22.0941 181.164 20.5938C182.138 19.0934 183.187 17.6749 184.312 16.311C184.687 15.8472 185.361 15.8199 185.786 16.2291C186.136 16.5837 186.211 17.1566 186.011 17.5931C185.261 19.2025 184.412 20.7575 183.562 22.2851L182.313 24.5765C182.263 24.6857 182.188 24.7675 182.138 24.8766C183.312 25.1767 184.462 25.5586 185.586 25.9951C186.486 26.3224 187.36 26.7316 188.235 27.1408C189.109 27.5773 189.959 28.0137 190.783 28.532C191.283 28.8867 191.458 29.5959 191.183 30.1415Z"
      fill="white"
    />
    <path
      d="M169.206 27.5755C169.056 27.6575 168.906 27.7121 168.732 27.7394H168.707C166.936 28.0946 165.191 28.5318 163.445 29.0236C162.573 29.2695 161.7 29.5427 160.827 29.816C159.954 30.0619 159.106 30.3897 158.209 30.663C157.66 30.8269 157.086 30.4717 156.912 29.8706C156.787 29.3515 156.987 28.8323 157.386 28.5591C158.209 28.04 159.081 27.6028 159.929 27.1657C160.802 26.7558 161.675 26.346 162.597 26.0181C163.72 25.581 164.867 25.2258 166.039 24.8979C165.989 24.7886 165.914 24.7066 165.864 24.5973L164.617 22.3023C163.77 20.7722 162.947 19.1875 162.174 17.6028C161.899 17.0563 162.099 16.3459 162.622 16.0727C163.046 15.8268 163.57 15.9361 163.869 16.3186C165.016 17.6847 166.039 19.1055 167.011 20.6083C168.009 22.111 168.931 23.6137 169.779 25.3351C170.228 26.1001 169.954 27.1383 169.206 27.5755Z"
      fill="white"
    />
    <path
      d="M182.322 47.044C181.79 47.2045 181.202 47.044 180.923 46.6543C180.279 45.7832 179.663 44.912 179.02 44.018L177.173 41.3816L175.326 38.7452C175.186 38.5389 175.046 38.3555 174.906 38.1492C174.766 38.3555 174.626 38.5618 174.486 38.7452L172.64 41.3816L170.765 44.018C170.121 44.8891 169.478 45.7602 168.834 46.6314C168.498 47.067 167.771 47.2045 167.239 46.9065C166.763 46.6543 166.595 46.1729 166.791 45.7832C167.211 44.8203 167.715 43.8804 168.218 42.9176C168.722 41.9776 169.254 41.0377 169.785 40.1207C170.345 39.2037 170.905 38.2638 171.52 37.3468C172.136 36.4298 172.724 35.5357 173.507 34.6187L173.535 34.5958C174.067 33.9539 175.13 33.7934 175.914 34.229C176.109 34.3436 176.277 34.4812 176.389 34.6417C177.117 35.5816 177.733 36.4757 178.348 37.3926C178.936 38.3096 179.523 39.2266 180.055 40.1666C180.615 41.0836 181.146 42.0235 181.622 42.9634C182.126 43.9033 182.63 44.8432 183.077 45.8061C183.217 46.3104 182.937 46.8606 182.322 47.044Z"
      fill="white"
    />
    <path d="M172.173 11.831C171.935 10.9985 171.802 10.1919 171.722 9.38538C171.643 8.57884 171.616 7.74627 171.643 6.93972C171.669 5.30061 171.802 3.6615 172.2 2.02239C172.359 1.42398 172.969 1.05974 173.553 1.21584C173.978 1.31991 174.296 1.65814 174.376 2.04841C174.774 3.68752 174.88 5.32663 174.906 6.96574C174.933 7.77229 174.88 8.60485 174.8 9.4114C174.721 10.2179 174.588 11.0505 174.349 11.8571C174.163 12.4555 173.527 12.7937 172.916 12.6116C172.571 12.4815 172.28 12.1693 172.173 11.831Z" fill="white" />
    <path
      d="M196.061 37.6846C195.766 38.175 195.177 38.3814 194.686 38.2008C193.58 37.7878 192.5 37.3491 191.37 36.9877C190.265 36.6006 189.16 36.2393 188.055 35.9037C186.999 35.594 185.918 35.3101 184.837 35.052C185.55 36.4199 186.311 37.8136 187.048 39.2073C187.711 40.472 188.398 41.7367 189.037 43.0529C189.651 44.3692 190.29 45.6855 190.805 47.0534C191.051 47.6728 190.781 48.3955 190.167 48.6536C189.626 48.8859 189.037 48.6794 188.742 48.189L184.248 40.9624C182.75 38.5363 181.276 36.007 180.024 33.3486C179.582 32.4453 179.95 31.3613 180.81 30.8967C181.154 30.7161 181.522 30.6644 181.866 30.7419C184.297 31.1806 186.704 31.8259 189.012 32.7292C190.167 33.168 191.321 33.6583 192.426 34.2003C193.531 34.7681 194.612 35.3359 195.668 36.007C196.233 36.3425 196.405 37.1168 196.061 37.6846Z"
      fill="white"
    />
    <path
      d="M169.819 33.3188C168.54 36.0044 167.09 38.5351 165.59 40.9624L161.115 48.1929C160.771 48.761 160.034 48.9159 159.493 48.5544C159.001 48.2187 158.829 47.599 159.05 47.0567C159.566 45.6881 160.206 44.3711 160.82 43.0541C161.46 41.7629 162.123 40.4718 162.812 39.2065C163.549 37.812 164.312 36.4176 165.025 35.0489C163.943 35.3072 162.886 35.5912 161.804 35.9269C160.697 36.2626 159.591 36.6241 158.485 37.0115C157.354 37.373 156.272 37.812 155.165 38.2252C154.551 38.4576 153.887 38.1219 153.666 37.4763C153.469 36.9082 153.69 36.3143 154.157 36.0302C155.19 35.3588 156.296 34.7907 157.403 34.2226C158.509 33.6803 159.64 33.1638 160.796 32.7507C163.107 31.8469 165.516 31.2013 167.95 30.7365C168.885 30.5557 169.794 31.2271 169.967 32.2084C170.04 32.5957 169.967 32.9831 169.819 33.3188Z"
      fill="white"
    />
    <path d="M191.437 40.6399C192.315 40.9949 193.08 41.4445 193.817 41.9415C194.554 42.4385 195.262 42.9592 195.914 43.5035C197.217 44.6158 198.464 45.8228 199.371 47.2428C199.682 47.7398 199.484 48.3314 198.889 48.6154C198.464 48.8048 197.982 48.7811 197.614 48.5681H197.585C196.084 47.6688 194.724 46.6511 193.42 45.6098C192.769 45.0891 192.145 44.5448 191.522 43.9768C190.927 43.4088 190.332 42.8172 189.85 42.1309C189.51 41.6575 189.68 41.0185 190.247 40.7345C190.615 40.4979 191.069 40.4979 191.437 40.6399Z" fill="white" />
    <path d="M159.96 40.8228C159.449 41.6435 158.881 42.351 158.285 43.0303C157.689 43.7095 157.035 44.3604 156.382 44.983C155.076 46.2283 153.742 47.4452 152.209 48.5207C151.669 48.9169 150.903 48.7754 150.534 48.2376C150.25 47.8414 150.25 47.3603 150.448 46.9641C151.385 45.266 152.606 43.8227 153.912 42.4925C154.565 41.8133 155.275 41.1907 155.985 40.5964C156.723 40.0303 157.49 39.4643 158.37 39.0398C158.966 38.7285 159.704 38.9832 160.017 39.5775C160.215 40.0303 160.187 40.4832 159.96 40.8228Z" fill="white" />
    <path
      d="M182.999 9.60594C181.924 11.9694 180.743 14.2504 179.509 16.5314C178.276 18.7849 176.99 21.0109 175.678 23.237C175.337 23.8141 174.733 24.1439 174.104 24.1439C173.448 24.1439 172.87 23.7866 172.529 23.237C171.243 21.0109 169.957 18.7849 168.75 16.5039C168.12 15.3771 167.517 14.2504 166.94 13.0961C166.362 11.9419 165.759 10.7877 165.208 9.60594C164.893 8.97385 165.155 8.17688 165.785 7.87458C166.31 7.59976 166.966 7.76465 167.307 8.25932C168.068 9.27616 168.777 10.3754 169.511 11.4197C170.22 12.4915 170.928 13.5633 171.637 14.6351C172.477 15.9268 173.29 17.2459 174.104 18.565C174.891 17.2459 175.731 15.9268 176.57 14.6077C177.961 12.4366 179.378 10.3205 180.926 8.25932C181.346 7.6822 182.133 7.59976 182.685 8.03947C183.104 8.39673 183.236 9.08378 182.999 9.60594Z"
      fill="white"
    />
  </g>
  <path
    d="M19.3661 31.0985C19.2875 31.7471 19.1041 32.292 18.8682 32.759C18.6062 33.2001 18.3179 33.5633 17.951 33.8228C17.5841 34.0823 17.191 34.2898 16.7193 34.3936C16.2738 34.5233 15.7759 34.5752 15.278 34.5752C14.8063 34.5752 14.3608 34.5233 13.9415 34.3936C13.5222 34.2898 13.1553 34.1082 12.8408 33.8487C12.5264 33.5893 12.3167 33.252 12.1595 32.8369C12.0022 32.4217 11.976 31.9287 12.0546 31.3579C12.1071 31.0206 12.2119 30.6055 12.3953 30.1125C12.5788 29.6195 12.8146 29.1525 13.1291 28.7114L14.6753 29.2822C14.5442 29.5158 14.4656 29.7233 14.387 29.879C14.3084 30.0606 14.2298 30.2163 14.1773 30.372C14.1249 30.5277 14.0725 30.6833 14.0463 30.839C14.0201 30.9947 13.9677 31.1504 13.9677 31.306C13.9153 31.6433 13.9415 31.9028 14.0201 32.1363C14.0987 32.3698 14.2035 32.5514 14.387 32.6812C14.5442 32.8109 14.7539 32.9147 14.9635 32.9666C15.1732 33.0185 15.409 33.0444 15.6187 33.0444C16.1952 33.0444 16.6407 32.8887 16.9814 32.6033C17.2959 32.3179 17.5055 31.8509 17.5841 31.2023L18.711 22.4844H20.5454L19.3661 31.0985Z"
    fill="white"
  />
  <path d="M24.3183 31.5449C24.2921 31.8043 24.2659 31.9859 24.2135 32.0897C24.1873 32.1935 24.1611 32.2713 24.1348 32.2713C23.7156 32.2713 23.3225 32.2454 22.9556 32.1935C22.5887 32.1416 22.248 32.0378 21.9597 31.8822C21.6715 31.7265 21.4618 31.5189 21.3308 31.2335C21.1998 30.974 21.1474 30.6367 21.1998 30.2475L22.1956 22.5156H24.03L23.1128 29.6508C23.0866 29.8584 23.0866 30.04 23.139 30.1957C23.1652 30.3513 23.2438 30.4811 23.3487 30.5589C23.4535 30.6367 23.5583 30.6886 23.6893 30.7405C23.8204 30.7665 23.9514 30.7924 24.1086 30.7924C24.2135 30.7924 24.2921 30.8443 24.3445 30.974C24.3707 31.0778 24.3707 31.2854 24.3183 31.5449Z" fill="white" />
  <path
    d="M24.163 32.2667C23.9271 32.2667 23.7699 32.2148 23.6651 32.0851C23.5602 31.9553 23.534 31.7997 23.5602 31.5661C23.5864 31.3067 23.6651 31.1251 23.7699 30.9694C23.8747 30.8397 23.9795 30.7618 24.1368 30.7618H24.4774C24.6609 30.7618 24.7919 30.7359 24.8967 30.658C25.0016 30.6061 25.1064 30.5024 25.1588 30.3986C25.2374 30.2948 25.2898 30.1651 25.3422 30.0094C25.3947 29.8537 25.4471 29.698 25.4995 29.4905C25.6043 28.9975 25.7615 28.5564 25.9712 28.1413C26.1808 27.7261 26.4429 27.3888 26.7312 27.1034C27.0456 26.818 27.3863 26.5845 27.7794 26.4288C28.1725 26.2732 28.5918 26.1953 29.0373 26.1953C29.5352 26.1953 29.9807 26.2732 30.3738 26.4288C30.7407 26.5845 31.0552 26.7921 31.291 27.0775C31.5269 27.3629 31.6841 27.6742 31.7627 28.0375C31.8413 28.4007 31.8676 28.8159 31.8151 29.2569C31.7889 29.4386 31.7627 29.5942 31.7365 29.7499C31.7103 29.9056 31.6579 30.0353 31.6055 30.1651C31.7103 30.3467 31.8413 30.4764 32.051 30.5802C32.2606 30.684 32.4965 30.7359 32.7324 30.7359C32.8634 30.7359 32.942 30.7878 32.9682 30.9175C32.9944 31.0472 32.9944 31.2288 32.9682 31.4624C32.942 31.618 32.9158 31.7737 32.9158 31.8516C32.8896 31.9553 32.8896 32.0332 32.8634 32.0851C32.8372 32.137 32.8372 32.1629 32.8372 32.1889C32.8372 32.2148 32.811 32.2148 32.811 32.2148C32.6799 32.2148 32.5227 32.2148 32.3393 32.1889C32.1558 32.1629 31.9986 32.111 31.8151 32.0591C31.6317 31.9813 31.4745 31.9034 31.3172 31.7737C31.16 31.6699 31.029 31.5143 30.9241 31.3326C30.5835 31.6699 30.1904 31.9034 29.7973 32.0591C29.4042 32.2148 28.9587 32.2667 28.5132 32.2667C28.0939 32.2667 27.727 32.2148 27.4125 32.111C27.0981 32.0072 26.7836 31.7997 26.4429 31.5143C26.1808 31.7997 25.9188 31.9813 25.6829 32.0591C25.4209 32.1629 25.0802 32.2148 24.6609 32.2148H24.163V32.2667ZM28.8801 27.7521C28.6442 27.7521 28.4346 27.8299 28.2249 27.9337C28.0415 28.0634 27.858 28.2451 27.727 28.4526C27.5698 28.6602 27.4649 28.9196 27.3601 29.1791C27.2553 29.4645 27.1767 29.7499 27.0981 30.0872C27.3339 30.3207 27.5436 30.5024 27.7794 30.6061C27.9891 30.7099 28.2511 30.7618 28.5132 30.7618C28.8801 30.7618 29.1945 30.6321 29.4566 30.3726C29.7187 30.1132 29.8759 29.7759 29.9283 29.3607C30.0069 28.8418 29.9283 28.4526 29.7449 28.1413C29.5614 27.8818 29.2732 27.7521 28.8801 27.7521Z"
    fill="white"
  />
  <path
    d="M32.7333 32.272C32.4974 32.272 32.3402 32.2201 32.2354 32.0904C32.1305 31.9606 32.1043 31.805 32.1305 31.5715C32.1568 31.312 32.2354 31.1304 32.3402 30.9747C32.445 30.845 32.5498 30.7671 32.7071 30.7671H33.9388C33.8077 30.5077 33.7291 30.2741 33.6505 30.0147C33.5981 29.7552 33.5719 29.4958 33.6243 29.2363C33.6767 28.7433 33.8339 28.3022 34.0698 27.9131C34.3056 27.5239 34.5939 27.2125 34.9346 26.9531C35.2753 26.6936 35.6684 26.512 36.0877 26.4082C36.507 26.2785 36.9263 26.2266 37.398 26.2266C37.7386 26.2266 38.1055 26.2525 38.4462 26.3044C38.7869 26.3563 39.0752 26.4341 39.311 26.512L38.8131 27.9131C38.6821 27.8871 38.4986 27.8352 38.2366 27.8093C37.9745 27.7574 37.7124 27.7574 37.4504 27.7574C37.2669 27.7574 37.0573 27.7833 36.8476 27.8352C36.638 27.8871 36.4545 27.965 36.2711 28.0687C36.0877 28.1725 35.9304 28.3282 35.7994 28.5358C35.6684 28.7174 35.5635 28.9768 35.5373 29.2623C35.4849 29.7552 35.5897 30.1185 35.878 30.4039C36.1663 30.6633 36.5856 30.819 37.1359 30.819H38.9703L38.7869 32.2979H32.7333V32.272Z"
    fill="white"
  />
  <path
    d="M46.6453 31.3865C46.4094 31.6978 46.0949 31.9313 45.7281 32.061C45.3612 32.1908 44.9156 32.2686 44.3914 32.2686H40.0938L40.2771 30.7897H43.7887C44.339 30.7897 44.7322 30.66 44.9943 30.4264C45.2563 30.1929 45.4135 29.7778 45.4921 29.181L46.3569 22.5129H48.1913L47.2742 29.4924C47.2218 29.8816 47.3266 30.1929 47.5625 30.4264C47.7983 30.66 48.1651 30.7637 48.6106 30.7637C48.7416 30.7637 48.8465 30.8156 48.8727 30.9454C48.9251 31.0492 48.9251 31.2567 48.8989 31.4902C48.8465 31.8016 48.8204 32.0092 48.7942 32.087C48.768 32.1908 48.7155 32.2427 48.6631 32.2427C48.4797 32.2427 48.2962 32.2167 48.0866 32.1908C47.8769 32.1648 47.6935 32.1129 47.5101 32.0351C47.3266 31.9573 47.1694 31.8794 47.0121 31.7756C46.8811 31.6978 46.7501 31.5421 46.6453 31.3865ZM42.4785 23.9918H44.3129L43.5005 30.141H41.666L42.4785 23.9918ZM42.7144 22.3832C42.6095 22.1497 42.5833 21.9421 42.6095 21.7345C42.6619 21.3194 42.8454 21.008 43.1337 20.7486C43.4219 20.4891 43.815 20.3594 44.2867 20.3594C44.3915 20.3594 44.5225 20.3594 44.6535 20.3853C44.7845 20.4113 44.9418 20.4372 45.0728 20.4891L44.8107 21.2156C44.6273 21.1637 44.4439 21.1118 44.208 21.1118C43.9721 21.1118 43.7887 21.1637 43.6315 21.2675C43.5004 21.3713 43.4218 21.5269 43.3956 21.7345C43.3694 21.9421 43.4218 22.0978 43.5528 22.2015C43.6839 22.3053 43.8674 22.3572 44.1295 22.3572H44.9418L44.837 23.1097H42.0854L42.1902 22.3572H42.7144V22.3832Z"
    fill="white"
  />
  <path d="M48.6117 30.7612C48.9 30.7612 49.1096 30.7352 49.3193 30.6833C49.5027 30.6314 49.6599 30.5536 49.7648 30.4498C49.8696 30.346 49.9482 30.2163 50.0268 30.0606C50.0792 29.9049 50.1316 29.7233 50.1579 29.5158L51.0751 22.4844H52.9095L51.9399 29.8531C51.8875 30.2682 51.7826 30.6055 51.6516 30.9168C51.5206 31.2023 51.3109 31.4617 51.0751 31.6693C50.813 31.8768 50.4985 32.0066 50.1054 32.1104C49.7124 32.2141 49.2406 32.266 48.6903 32.266C48.4545 32.266 48.2972 32.2141 48.1924 32.0844C48.0876 31.9547 48.0614 31.799 48.0876 31.5655C48.1138 31.306 48.1924 31.1244 48.2972 30.9687C48.3496 30.839 48.4807 30.7612 48.6117 30.7612Z" fill="white" />
  <path
    d="M58.5725 30.1926C58.4939 30.8153 58.6774 31.2823 59.1229 31.5677C59.5684 31.8791 60.2759 32.0347 61.2718 32.0347C61.7173 32.0347 62.1366 32.0088 62.4772 31.9569C62.8441 31.905 63.1324 31.8272 63.3944 31.7493C63.6565 31.6456 63.8662 31.5677 63.9972 31.438C64.1282 31.3342 64.2068 31.2045 64.233 31.1007C64.2592 30.945 64.1544 30.7634 63.9186 30.5818C63.6827 30.4001 63.3158 30.1666 62.8179 29.8812C62.2938 29.5958 61.9007 29.2845 61.6386 28.9472C61.3766 28.6099 61.298 28.1947 61.3504 27.7018C61.4028 27.3645 61.5076 27.0531 61.6911 26.7418C61.8745 26.4304 62.1104 26.1709 62.3986 25.9634C62.6869 25.7299 63.0538 25.5482 63.4731 25.4185C63.8924 25.2888 64.3641 25.2109 64.8882 25.2109C64.993 25.2109 65.124 25.2109 65.2813 25.2369C65.4123 25.2628 65.5695 25.2628 65.7268 25.2888C65.884 25.3147 66.0151 25.3407 66.1461 25.3666C66.2771 25.3926 66.4081 25.4185 66.513 25.4704L66.0413 26.8196C65.9364 26.7936 65.753 26.7418 65.5433 26.7158C65.3337 26.6639 65.0978 26.6639 64.862 26.6639C64.7047 26.6639 64.5475 26.6899 64.3641 26.7158C64.1806 26.7418 64.0234 26.7936 63.84 26.8715C63.6827 26.9493 63.5255 27.0272 63.4207 27.1569C63.3158 27.2866 63.2372 27.4164 63.211 27.598C63.1848 27.7277 63.211 27.8574 63.2896 27.9872C63.3682 28.1169 63.4469 28.2207 63.6041 28.3504C63.7351 28.4542 63.8924 28.5839 64.0496 28.6877C64.2068 28.7915 64.3903 28.8953 64.5737 28.9731C64.8096 29.1028 65.0192 29.2326 65.2289 29.3883C65.4385 29.518 65.5958 29.6737 65.753 29.8293C65.884 29.985 66.0151 30.1666 66.0675 30.3483C66.1461 30.5299 66.1723 30.7634 66.1199 30.9969C66.0675 31.3861 65.9102 31.7493 65.6744 32.0607C65.4385 32.372 65.0978 32.6575 64.6785 32.891C64.2592 33.1245 63.7613 33.3061 63.1586 33.4099C62.5559 33.5396 61.9007 33.5915 61.1669 33.5915C60.407 33.5915 59.7256 33.5396 59.1491 33.4099C58.5725 33.2802 58.0746 33.0985 57.6815 32.8391C57.2884 32.5796 57.0002 32.2423 56.8429 31.8272C56.6857 31.412 56.6333 30.9191 56.7119 30.3223C56.7643 30.011 56.8691 29.6218 57.0264 29.1547C57.1836 28.7137 57.4457 28.2466 57.7601 27.7536L59.3063 28.3504C59.1229 28.6877 58.9656 28.9991 58.8346 29.3364C58.6774 29.6477 58.5987 29.9331 58.5725 30.1926ZM58.3891 35.5634C58.4153 35.278 58.5463 35.0704 58.756 34.8888C58.9656 34.7072 59.2015 34.6294 59.4897 34.6294C59.778 34.6294 59.9877 34.7072 60.1187 34.8888C60.2759 35.0704 60.3283 35.304 60.3021 35.5634C60.2759 35.8488 60.1449 36.0823 59.9615 36.264C59.7518 36.4456 59.516 36.5234 59.2539 36.5234C58.9656 36.5234 58.756 36.4456 58.5987 36.264C58.4153 36.0823 58.3367 35.8488 58.3891 35.5634ZM60.7476 35.5634C60.7738 35.278 60.9049 35.0704 61.1145 34.8888C61.3242 34.7072 61.56 34.6294 61.8483 34.6294C62.1366 34.6294 62.3462 34.7072 62.4772 34.8888C62.6345 35.0704 62.6869 35.304 62.6607 35.5634C62.6345 35.8488 62.5034 36.0823 62.32 36.264C62.1104 36.4456 61.8745 36.5234 61.6124 36.5234C61.3242 36.5234 61.1145 36.4456 60.9573 36.264C60.7738 36.0823 60.7214 35.8488 60.7476 35.5634Z"
    fill="white"
  />
  <path d="M69.5227 30.761C69.9682 30.761 70.2827 30.6832 70.5185 30.5015C70.7544 30.3199 70.8855 30.0086 70.9641 29.5415L71.0164 29.2042C71.0689 28.7631 70.964 28.3999 70.702 28.1664C70.4399 27.9329 70.0206 27.8031 69.4441 27.8031H68.16L68.3434 26.3242H69.9682C70.5185 26.3242 70.9902 26.3761 71.3833 26.5058C71.7764 26.6356 72.0909 26.8172 72.3267 27.0507C72.5626 27.2842 72.7198 27.5437 72.7985 27.855C72.8771 28.1664 72.9033 28.5037 72.8509 28.8669L72.746 29.7491C72.6412 30.6313 72.3792 31.2799 71.9599 31.6691C71.5406 32.0583 70.9116 32.2659 70.0206 32.2659H66.7188L66.9021 30.7869H69.5227V30.761Z" fill="white" />
  <path
    d="M76.3146 33.1257C76.5766 33.1257 76.8125 33.1257 77.0221 33.0998C77.2318 33.0738 77.4152 33.0479 77.5725 32.97C77.7297 32.9181 77.8345 32.8144 77.9393 32.7106C78.018 32.6068 78.0704 32.4511 78.0966 32.2695H76.8125C76.367 32.2695 75.9739 32.2176 75.607 32.1138C75.2401 32.01 74.9519 31.8284 74.716 31.6208C74.4801 31.3873 74.2967 31.1019 74.1919 30.7387C74.0871 30.3754 74.0608 29.9603 74.1395 29.4933C74.1919 29.0781 74.3229 28.663 74.4801 28.2738C74.6636 27.8846 74.8994 27.5473 75.2139 27.2359C75.5284 26.9246 75.8953 26.6911 76.3146 26.5095C76.7339 26.3278 77.2318 26.25 77.7559 26.25C78.149 26.25 78.5421 26.3019 78.8828 26.4316C79.2234 26.5614 79.5117 26.743 79.7738 26.9765C80.0096 27.21 80.1931 27.5214 80.3241 27.8846C80.4289 28.2478 80.4551 28.663 80.4027 29.156L80.1931 30.8165H81.1627C81.2937 30.8165 81.3723 30.8684 81.4247 30.9981C81.4772 31.1279 81.4772 31.3095 81.4509 31.5689C81.4247 31.8803 81.3723 32.0619 81.3199 32.1657C81.2937 32.2695 81.2413 32.2954 81.1889 32.2954H79.931C79.8262 32.7106 79.6689 33.0738 79.4331 33.3852C79.2234 33.6706 78.9352 33.93 78.6207 34.1117C78.3062 34.2933 77.9393 34.423 77.52 34.5008C77.1007 34.5787 76.6552 34.6306 76.1835 34.6306C75.9215 34.6306 75.6332 34.6046 75.3187 34.5787C75.0043 34.5268 74.7422 34.5008 74.4801 34.423L74.9256 33.0219C75.1353 33.0738 75.3449 33.0998 75.5546 33.1517C75.8166 33.1257 76.0525 33.1257 76.3146 33.1257ZM76.0525 29.2857C75.9739 29.7787 76.0525 30.1679 76.2622 30.4014C76.4718 30.6349 76.8125 30.7646 77.258 30.7646H78.3062L78.5159 29.2338C78.5421 29.0262 78.5421 28.8446 78.5421 28.663C78.5159 28.4814 78.4897 28.3257 78.4111 28.17C78.3324 28.0143 78.2276 27.9105 78.0966 27.8327C77.9655 27.7549 77.7821 27.703 77.5987 27.703C77.4414 27.703 77.2842 27.7289 77.1007 27.7808C76.9435 27.8327 76.7863 27.9365 76.6552 28.0662C76.5242 28.196 76.3932 28.3516 76.2884 28.5592C76.1573 28.7668 76.0787 29.0262 76.0525 29.2857Z"
    fill="white"
  />
  <path
    d="M81.163 32.2692C80.9271 32.2692 80.7699 32.2173 80.6651 32.0876C80.5602 31.9578 80.534 31.8022 80.5602 31.5687C80.5864 31.3092 80.6651 31.1276 80.7699 30.9719C80.8747 30.8422 80.9795 30.7643 81.1368 30.7643H82.5519C82.814 30.7643 83.0498 30.7384 83.2595 30.7124C83.4691 30.6865 83.6263 30.6346 83.7574 30.5827C83.5739 30.3492 83.4167 30.1676 83.2595 29.9859C83.1022 29.8303 82.9712 29.6746 82.814 29.5189C82.6829 29.3892 82.5257 29.2595 82.3423 29.1038C82.185 28.9741 81.9754 28.8184 81.7395 28.6886C81.7657 28.6108 81.7919 28.4811 81.8443 28.3254C81.8967 28.1697 81.9229 28.014 81.9754 27.8324C82.0278 27.6767 82.0802 27.5211 82.1326 27.3654C82.185 27.2357 82.2374 27.1059 82.2636 27.054C82.4209 26.9503 82.6305 26.8465 82.8664 26.7427C83.1022 26.6389 83.3643 26.5611 83.6526 26.4573C83.9408 26.3794 84.2291 26.3016 84.5173 26.2497C84.8056 26.1978 85.0939 26.1719 85.3821 26.1719C85.8014 26.1719 86.2207 26.2238 86.5876 26.3016C86.9545 26.3794 87.269 26.5092 87.531 26.6908C87.7931 26.8724 88.0028 27.08 88.1338 27.3394C88.2648 27.5989 88.3172 27.8843 88.2648 28.2476C88.2386 28.4811 88.16 28.7146 88.029 28.9222C87.8979 29.1557 87.7669 29.3632 87.5835 29.5708C87.4 29.7784 87.1904 29.9859 86.9545 30.1676C86.7187 30.3492 86.4566 30.5308 86.1945 30.6605C86.2994 30.6865 86.4566 30.7124 86.64 30.7384C86.8235 30.7384 86.9807 30.7643 87.1117 30.7643H88.4745C88.6055 30.7643 88.6841 30.8162 88.7365 30.946C88.7889 31.0497 88.7889 31.2573 88.7627 31.5427C88.7103 31.8541 88.6841 32.0616 88.6579 32.1395C88.6317 32.2173 88.5793 32.2692 88.5269 32.2692H86.64C86.1683 32.2692 85.7752 32.2173 85.4346 32.1135C85.0939 32.0097 84.8318 31.906 84.6484 31.7503C84.3077 31.906 83.9146 32.0357 83.4953 32.1135C83.076 32.2173 82.6567 32.2692 82.2112 32.2692H81.163ZM85.1725 27.7286C85.0153 27.7286 84.858 27.7546 84.6746 27.7805C84.5174 27.8065 84.3601 27.8324 84.2029 27.8843C84.0456 27.9103 83.9146 27.9622 83.8098 28.014C83.6788 28.0659 83.6001 28.0919 83.5477 28.1438C83.8884 28.4551 84.1767 28.7405 84.4125 29.0519C84.6484 29.3632 84.858 29.6746 85.0415 29.9859C85.1725 29.9081 85.3297 29.8043 85.487 29.7005C85.6442 29.5968 85.7752 29.467 85.9063 29.3373C86.0373 29.2076 86.1421 29.0778 86.2207 28.9481C86.2994 28.8184 86.3518 28.6627 86.378 28.507C86.378 28.4292 86.378 28.3513 86.3518 28.2476C86.3256 28.1697 86.2469 28.0659 86.1683 28.014C86.0635 27.9362 85.9587 27.8843 85.8014 27.8324C85.5918 27.7546 85.4084 27.7286 85.1725 27.7286Z"
    fill="white"
  />
  <path
    d="M92.9528 32.2712C92.5073 32.2712 92.1142 32.1933 91.7997 32.0636C91.4853 31.9079 91.2756 31.7263 91.1708 31.4668C90.9349 31.7523 90.5943 31.9339 90.1488 32.0895C89.7033 32.2193 89.1529 32.2971 88.4716 32.2971C88.2357 32.2971 88.0785 32.2452 87.9737 32.1155C87.8688 31.9858 87.8426 31.8301 87.8688 31.5966C87.895 31.3371 87.9737 31.1555 88.0785 30.9998C88.1833 30.8701 88.2881 30.7922 88.4454 30.7922C88.9433 30.7922 89.3102 30.7144 89.546 30.5328C89.7819 30.3771 89.9391 30.0398 89.9915 29.5728L90.2536 27.4971H92.088L91.7997 29.7285C91.7735 29.8582 91.7735 30.0139 91.7997 30.1436C91.7997 30.2733 91.8522 30.3771 91.9046 30.4809C91.957 30.5847 92.0618 30.6625 92.1666 30.7144C92.2977 30.7663 92.4549 30.7922 92.6645 30.7922C92.979 30.7922 93.2149 30.7144 93.3721 30.5587C93.5293 30.4031 93.6342 30.0658 93.7128 29.5728L93.9748 27.4971H95.8093L95.521 29.7285C95.4948 29.8582 95.4948 30.0139 95.521 30.1436C95.521 30.2733 95.5734 30.3771 95.6258 30.4809C95.6782 30.5847 95.7831 30.6625 95.8879 30.7144C96.0189 30.7663 96.1761 30.7922 96.3858 30.7922C96.7003 30.7922 96.9361 30.7144 97.0934 30.5587C97.2506 30.4031 97.3554 30.0658 97.434 29.5728L97.8533 26.3555H99.6616L99.2423 29.5209C99.1898 29.9101 99.2947 30.2214 99.5305 30.4549C99.7664 30.6885 100.107 30.8182 100.579 30.8182C100.71 30.8182 100.815 30.8701 100.841 30.9998C100.893 31.1036 100.893 31.3112 100.867 31.5447C100.815 31.856 100.788 32.0636 100.762 32.1414C100.736 32.2452 100.684 32.2971 100.631 32.2971C100.448 32.2971 100.29 32.2712 100.081 32.2452C99.8974 32.2193 99.6878 32.1674 99.5043 32.1155C99.3209 32.0377 99.1374 31.9598 98.9802 31.856C98.823 31.7523 98.6919 31.6225 98.6133 31.4409C98.3775 31.7263 98.1154 31.9339 97.7747 32.0895C97.434 32.2193 97.0672 32.2971 96.6741 32.2971C96.2286 32.2971 95.8355 32.2193 95.5472 32.0895C95.2327 31.9339 95.0231 31.7522 94.9183 31.4928C94.4203 31.9858 93.7914 32.2712 92.9528 32.2712Z"
    fill="white"
  />
  <path d="M100.553 30.7612C100.841 30.7612 101.051 30.7352 101.261 30.6833C101.444 30.6314 101.601 30.5536 101.706 30.4498C101.811 30.346 101.89 30.2163 101.968 30.0606C102.021 29.9049 102.073 29.7233 102.099 29.5158L103.016 22.4844H104.851L103.881 29.8531C103.829 30.2682 103.724 30.6055 103.593 30.9168C103.462 31.2023 103.252 31.4617 103.016 31.6693C102.754 31.8768 102.44 32.0066 102.047 32.1104C101.654 32.2141 101.182 32.266 100.632 32.266C100.396 32.266 100.239 32.2141 100.134 32.0844C100.029 31.9547 100.003 31.799 100.029 31.5655C100.055 31.306 100.134 31.1244 100.239 30.9687C100.291 30.839 100.422 30.7612 100.553 30.7612Z" fill="white" />
  <path d="M108.444 22.5156L107.186 32.2713H105.352L106.609 22.5156H108.444Z" fill="white" />
  <path
    d="M112.32 34.5764C112.058 34.5764 111.796 34.5505 111.587 34.5245C111.377 34.4986 111.194 34.4467 111.062 34.3948L111.482 32.9678C111.587 32.9937 111.691 32.9937 111.796 33.0197C111.901 33.0456 111.98 33.0456 112.085 33.0456C112.425 33.0456 112.687 32.9418 112.845 32.7602C113.028 32.5786 113.133 32.2413 113.185 31.8261L113.893 26.3256H115.727L115.151 30.7624H116.278C116.409 30.7624 116.487 30.8142 116.54 30.944C116.592 31.0737 116.592 31.2553 116.566 31.5148C116.54 31.8002 116.487 32.0078 116.461 32.0856C116.435 32.1894 116.382 32.2413 116.33 32.2413H114.967C114.889 32.7083 114.758 33.0975 114.6 33.4088C114.417 33.7202 114.233 33.9537 113.971 34.1094C113.736 34.291 113.473 34.3948 113.185 34.4726C112.871 34.5505 112.609 34.5764 112.32 34.5764ZM114.181 24.0942C114.207 23.8088 114.338 23.6012 114.548 23.4196C114.758 23.238 114.993 23.1602 115.282 23.1602C115.57 23.1602 115.78 23.238 115.911 23.4196C116.068 23.6012 116.12 23.8088 116.094 24.0942C116.068 24.3796 115.937 24.6131 115.753 24.7948C115.544 24.9764 115.308 25.0542 115.046 25.0542C114.758 25.0542 114.548 24.9764 114.391 24.7948C114.207 24.5872 114.129 24.3537 114.181 24.0942Z"
    fill="white"
  />
  <path d="M116.304 32.2702C116.068 32.2702 115.911 32.2183 115.806 32.0886C115.701 31.9589 115.675 31.8032 115.701 31.5697C115.727 31.3362 115.806 31.1286 115.884 30.9989C115.989 30.8691 116.094 30.7913 116.251 30.7913H120.182C120.654 30.7913 120.994 30.6875 121.204 30.5059C121.414 30.2983 121.571 29.987 121.623 29.5718L121.676 29.2345C121.807 28.3264 121.309 27.8594 120.208 27.8594H117.299L117.483 26.3805L121.623 22.5664L122.724 23.708L119.789 26.3805H120.863C121.388 26.3805 121.833 26.4583 122.2 26.5621C122.567 26.6918 122.855 26.8735 123.065 27.081C123.274 27.3145 123.432 27.574 123.51 27.8853C123.589 28.1967 123.589 28.534 123.563 28.8972L123.458 29.7794C123.353 30.6616 123.065 31.3102 122.645 31.6994C122.226 32.0886 121.597 32.2702 120.732 32.2702H116.304Z" fill="white" />
  <path d="M124.504 34.5751C124.242 34.5751 123.98 34.5491 123.77 34.5232C123.561 34.4972 123.377 34.4453 123.246 34.3934L123.665 32.9664C123.77 32.9924 123.875 32.9924 123.98 33.0183C124.085 33.0442 124.163 33.0442 124.268 33.0442C124.609 33.0442 124.871 32.9405 125.028 32.7588C125.212 32.5772 125.316 32.2399 125.369 31.8248L126.076 26.3242H127.911L127.334 30.761H128.461C128.592 30.761 128.671 30.8129 128.723 30.9426C128.776 31.0723 128.776 31.254 128.749 31.5134C128.723 31.7988 128.671 32.0064 128.645 32.0842C128.618 32.188 128.566 32.2399 128.514 32.2399H127.151C127.072 32.707 126.941 33.0961 126.784 33.4075C126.6 33.7188 126.417 33.9524 126.155 34.108C125.919 34.2897 125.657 34.3934 125.369 34.4713C125.081 34.5491 124.792 34.5751 124.504 34.5751Z" fill="white" />
  <path
    d="M128.515 32.2667C128.279 32.2667 128.121 32.2148 128.017 32.0851C127.912 31.9553 127.886 31.7997 127.912 31.5661C127.938 31.3067 128.017 31.1251 128.121 30.9694C128.226 30.8397 128.331 30.7618 128.488 30.7618H128.829C129.012 30.7618 129.143 30.7359 129.248 30.658C129.353 30.6061 129.458 30.5024 129.51 30.3986C129.589 30.2948 129.641 30.1651 129.694 30.0094C129.746 29.8537 129.799 29.698 129.851 29.4905C129.956 28.9975 130.113 28.5564 130.323 28.1413C130.532 27.7261 130.794 27.3888 131.083 27.1034C131.397 26.818 131.738 26.5845 132.131 26.4288C132.524 26.2732 132.943 26.1953 133.389 26.1953C133.887 26.1953 134.332 26.2732 134.725 26.4288C135.092 26.5845 135.407 26.7921 135.643 27.0775C135.878 27.3629 136.036 27.6742 136.114 28.0375C136.193 28.4007 136.219 28.8159 136.167 29.2569C136.14 29.4386 136.114 29.5942 136.088 29.7499C136.062 29.9056 136.009 30.0353 135.957 30.1651C136.062 30.3467 136.193 30.4764 136.403 30.5802C136.612 30.684 136.848 30.7359 137.084 30.7359C137.215 30.7359 137.294 30.7878 137.32 30.9175C137.346 31.0472 137.346 31.2288 137.32 31.4624C137.294 31.618 137.267 31.7737 137.267 31.8516C137.241 31.9553 137.241 32.0332 137.215 32.0851C137.189 32.137 137.189 32.1629 137.189 32.1889C137.189 32.2148 137.163 32.2148 137.163 32.2148C137.032 32.2148 136.874 32.2148 136.691 32.1889C136.507 32.1629 136.35 32.111 136.167 32.0591C135.983 31.9813 135.826 31.9034 135.669 31.7737C135.512 31.6699 135.381 31.5143 135.276 31.3326C134.935 31.6699 134.542 31.9034 134.149 32.0591C133.756 32.2148 133.31 32.2667 132.865 32.2667C132.445 32.2667 132.079 32.2148 131.764 32.111C131.45 32.0072 131.135 31.7997 130.794 31.5143C130.532 31.7997 130.27 31.9813 130.034 32.0591C129.772 32.1629 129.432 32.2148 129.012 32.2148H128.515V32.2667ZM133.232 27.7521C132.996 27.7521 132.786 27.8299 132.576 27.9337C132.393 28.0634 132.21 28.2451 132.079 28.4526C131.921 28.6602 131.816 28.9196 131.712 29.1791C131.607 29.4645 131.528 29.7499 131.45 30.0872C131.685 30.3207 131.895 30.5024 132.131 30.6061C132.341 30.7099 132.603 30.7618 132.865 30.7618C133.232 30.7618 133.546 30.6321 133.808 30.3726C134.07 30.1132 134.227 29.7759 134.28 29.3607C134.358 28.8418 134.28 28.4526 134.096 28.1413C133.913 27.8818 133.625 27.7521 133.232 27.7521Z"
    fill="white"
  />
  <path d="M137.03 30.7612C137.318 30.7612 137.528 30.7352 137.737 30.6833C137.921 30.6314 138.078 30.5536 138.183 30.4498C138.288 30.346 138.366 30.2163 138.445 30.0606C138.497 29.9049 138.55 29.7233 138.576 29.5158L139.493 22.4844H141.327L140.358 29.8531C140.305 30.2682 140.201 30.6055 140.07 30.9168C139.939 31.2023 139.729 31.4617 139.493 31.6693C139.231 31.8768 138.916 32.0066 138.523 32.1104C138.13 32.2141 137.659 32.266 137.108 32.266C136.872 32.266 136.715 32.2141 136.61 32.0844C136.506 31.9547 136.479 31.799 136.506 31.5655C136.532 31.306 136.61 31.1244 136.715 30.9687C136.768 30.839 136.872 30.7612 137.03 30.7612Z" fill="white" />
  <path d="M144.919 22.5156L143.635 32.2713H141.801L143.085 22.5156H144.919Z" fill="white" />
  <path
    d="M6.52531 40.4125C6.21084 40.2828 5.87016 40.2049 5.52948 40.153C5.1888 40.1011 4.84812 40.0752 4.53365 40.0752C4.324 40.0752 4.14056 40.1011 3.95711 40.1271C3.77367 40.153 3.59023 40.2049 3.43299 40.2828C3.27576 40.3606 3.14473 40.4644 3.0399 40.5941C2.93508 40.7238 2.88267 40.8795 2.85646 41.0871C2.83025 41.2428 2.85646 41.3984 2.90887 41.5282C2.96128 41.6579 3.06611 41.7876 3.19714 41.8914C3.32817 41.9952 3.51161 42.1249 3.72126 42.2287C3.93091 42.3325 4.19297 42.4622 4.48124 42.592C4.84812 42.7476 5.1888 42.9292 5.47707 43.0849C5.76533 43.2665 6.02739 43.4482 6.23704 43.6817C6.44669 43.9152 6.60393 44.1747 6.68254 44.4601C6.76116 44.7455 6.78737 45.1087 6.73496 45.5239C6.68255 45.9909 6.52531 46.406 6.28945 46.7693C6.0536 47.1325 5.76533 47.4179 5.39845 47.6514C5.03156 47.8849 4.63847 48.0406 4.19297 48.1704C3.74747 48.2741 3.30196 48.326 2.83025 48.326C2.38475 48.326 1.91304 48.3001 1.44133 48.2222C0.943418 48.1444 0.471709 48.0147 0 47.859L0.550327 46.2763C0.969624 46.4579 1.38892 46.5876 1.80822 46.6655C2.22751 46.7433 2.62061 46.7952 2.96128 46.7952C3.48541 46.7952 3.9047 46.7174 4.21918 46.5358C4.50744 46.3541 4.69088 46.0687 4.7433 45.7055C4.7695 45.5239 4.7433 45.3682 4.69088 45.2384C4.63847 45.1087 4.53365 44.979 4.40262 44.8493C4.27159 44.7195 4.08815 44.6157 3.85229 44.486C3.64264 44.3822 3.35438 44.2525 3.06611 44.1228C2.69922 43.9671 2.38475 43.8114 2.09648 43.6298C1.80822 43.4482 1.57236 43.2406 1.36271 43.033C1.15307 42.7995 1.02204 42.5401 0.917212 42.2806C0.838594 41.9952 0.812388 41.6838 0.8648 41.3206C0.917212 40.8276 1.07445 40.4125 1.3103 40.0752C1.54616 39.7379 1.86063 39.4525 2.20131 39.219C2.56819 38.9854 2.93508 38.8298 3.35438 38.726C3.77367 38.6222 4.16676 38.5703 4.55985 38.5703C5.03156 38.5703 5.47707 38.5963 5.89636 38.6482C6.31566 38.7 6.68254 38.8038 7.02322 38.9076L6.52531 40.4125Z"
    fill="white"
  />
  <path
    d="M12.5496 43.5829C12.602 43.2196 12.4972 42.9342 12.2613 42.7267C12.0255 42.5191 11.6586 42.4153 11.1345 42.4153C10.8724 42.4153 10.5842 42.4413 10.2697 42.4931C9.95521 42.545 9.61454 42.6229 9.24765 42.7526L9.06421 41.4034C9.37868 41.2996 9.77177 41.1958 10.2173 41.118C10.6628 41.0402 11.0559 40.9883 11.4228 40.9883C12.5758 40.9883 13.4144 41.2218 13.8861 41.6888C14.3578 42.1559 14.5413 42.8045 14.4102 43.6607L14.0434 46.5407C14.0172 46.8002 13.9909 47.0856 13.9647 47.371C13.9385 47.6564 13.9385 47.9159 13.9647 48.1234H12.2876C12.2613 48.0197 12.2613 47.864 12.2613 47.6824C12.2613 47.5007 12.2613 47.371 12.2613 47.2413H12.2351C12.0255 47.5526 11.711 47.7861 11.3441 47.9937C10.951 48.1753 10.5317 48.2791 10.06 48.2791C9.74557 48.2791 9.43109 48.2532 9.14283 48.1753C8.85456 48.0975 8.5925 47.9678 8.35665 47.7861C8.12079 47.6045 7.96355 47.397 7.85873 47.1115C7.75391 46.8521 7.7277 46.5148 7.78011 46.0997C7.85873 45.6067 8.01597 45.1915 8.27803 44.8542C8.54009 44.5429 8.90697 44.2834 9.32627 44.1278C9.74557 43.9721 10.2435 43.8423 10.82 43.7905C11.3703 43.7386 11.9469 43.7126 12.5234 43.7126L12.5496 43.5829ZM12.1303 44.9321C11.8158 44.9321 11.5014 44.958 11.2131 44.984C10.9248 45.0099 10.6628 45.0618 10.4269 45.1656C10.1911 45.2434 10.0076 45.3732 9.8766 45.5288C9.74557 45.6845 9.64074 45.8661 9.61454 46.0997C9.58833 46.411 9.64074 46.6445 9.79798 46.8002C9.95522 46.9559 10.2173 47.0597 10.5317 47.0597C10.7938 47.0597 11.0297 47.0078 11.2393 46.9299C11.449 46.8521 11.6324 46.7224 11.7896 46.5667C11.9469 46.411 12.0517 46.2294 12.1303 46.0478C12.2089 45.8661 12.2613 45.6586 12.2876 45.451L12.34 44.958H12.1303V44.9321Z"
    fill="white"
  />
  <path
    d="M20.4421 48.15L20.5731 47.2159H20.5469C20.3111 47.5792 19.9966 47.8386 19.5773 48.0202C19.158 48.2019 18.7125 48.3056 18.267 48.3056C17.8739 48.3056 17.507 48.2538 17.1925 48.124C16.8781 47.9943 16.6422 47.8386 16.4326 47.6051C16.2491 47.3975 16.0919 47.1121 16.0133 46.8008C15.9347 46.4894 15.9084 46.1521 15.9609 45.7629L16.5636 41.1445H18.4766L17.9787 45.0624C17.9525 45.3478 17.9263 45.6073 17.9525 45.8148C17.9525 46.0483 18.0049 46.23 18.0836 46.3856C18.1622 46.5413 18.2932 46.671 18.4504 46.7489C18.6077 46.8267 18.8173 46.8786 19.0794 46.8786C19.2628 46.8786 19.4463 46.8527 19.6297 46.7748C19.8132 46.697 19.9966 46.5932 20.1538 46.4635C20.3111 46.3078 20.4683 46.1262 20.5731 45.8667C20.7042 45.6073 20.7828 45.2959 20.8352 44.9327L21.3331 41.1445H23.2461L22.3289 48.15H20.4421Z"
    fill="white"
  />
  <path
    d="M30.2968 38.418H32.2098L30.952 48.1737H29.0913L29.1961 47.2915H29.1699C28.8555 47.6548 28.4886 47.9402 28.0693 48.0958C27.65 48.2515 27.2569 48.3294 26.8638 48.3294C26.3921 48.3294 25.9728 48.2256 25.6059 48.044C25.2652 47.8623 24.977 47.6029 24.7673 47.2656C24.5577 46.9283 24.4266 46.5391 24.348 46.098C24.2694 45.6569 24.2694 45.1899 24.348 44.671C24.4266 44.152 24.5315 43.685 24.7411 43.2439C24.9246 42.8029 25.1866 42.4137 25.4749 42.0764C25.7632 41.7391 26.13 41.4796 26.5231 41.298C26.9162 41.1164 27.3617 41.0126 27.8596 41.0126C28.2789 41.0126 28.6458 41.0904 28.9865 41.2201C29.3272 41.3758 29.6154 41.6093 29.8251 41.9466H29.8513L30.2968 38.418ZM26.2087 44.645C26.1562 44.9564 26.1562 45.2677 26.1824 45.5272C26.2087 45.8126 26.2873 46.0461 26.3921 46.2537C26.4969 46.4612 26.6542 46.6169 26.8376 46.7207C27.021 46.8245 27.2569 46.9023 27.5452 46.9023C27.8334 46.9023 28.0693 46.8504 28.3051 46.7207C28.541 46.6169 28.7506 46.4612 28.9079 46.2537C29.0913 46.0461 29.2224 45.8126 29.3534 45.5272C29.4582 45.2418 29.563 44.9564 29.5892 44.6191C29.6416 44.3077 29.6154 43.9964 29.5892 43.7369C29.5368 43.4515 29.4582 43.218 29.3272 43.0364C29.1961 42.8288 29.0389 42.6731 28.8293 42.5693C28.6196 42.4656 28.3838 42.4137 28.1217 42.4137C27.8596 42.4137 27.5976 42.4656 27.3879 42.5953C27.1521 42.6991 26.9686 42.8807 26.8114 43.0623C26.6542 43.2699 26.5231 43.5034 26.4183 43.7629C26.3397 44.0483 26.2611 44.3337 26.2087 44.645Z"
    fill="white"
  />
  <path d="M35.6154 41.1398L34.6982 48.1452H32.7852L33.7024 41.1398H35.6154ZM35.9561 38.4414L35.7464 40.076H33.8334L34.043 38.4414H35.9561Z" fill="white" />
  <path
    d="M41.4036 38.6758H45.3869C45.8062 38.6758 46.1993 38.7277 46.5399 38.8055C46.8806 38.8833 47.1689 39.039 47.4047 39.2207C47.6406 39.4023 47.824 39.6617 47.9289 39.9731C48.0337 40.2844 48.0599 40.6477 48.0075 41.0628C47.9289 41.6596 47.7192 42.1266 47.3785 42.4639C47.0379 42.8012 46.6448 43.0607 46.1993 43.1904V43.2163C46.4613 43.2942 46.671 43.372 46.8544 43.5017C47.0379 43.6055 47.2213 43.7612 47.3523 43.9428C47.4834 44.1245 47.5882 44.332 47.6668 44.5915C47.7192 44.8509 47.7454 45.1623 47.693 45.4996C47.6406 45.8628 47.5358 46.2001 47.3785 46.5115C47.2213 46.8228 46.9854 47.1083 46.6972 47.3418C46.4089 47.5753 46.0682 47.7828 45.6489 47.9126C45.2296 48.0423 44.7841 48.1201 44.2338 48.1201H40.1719L41.4036 38.6758ZM42.3208 46.5893H43.8931C44.1552 46.5893 44.3648 46.5634 44.5745 46.5374C44.7841 46.5115 44.9676 46.4337 45.1248 46.3558C45.2821 46.252 45.4131 46.1223 45.5179 45.9666C45.6227 45.8109 45.6751 45.6034 45.7276 45.3439C45.7538 45.0845 45.7276 44.8769 45.6489 44.7212C45.5703 44.5655 45.4655 44.4358 45.3083 44.332C45.151 44.2282 44.9676 44.1763 44.7317 44.1245C44.4959 44.0726 44.2338 44.0726 43.9718 44.0726H42.6352L42.3208 46.5893ZM42.8449 42.5417H44.2338C44.7579 42.5417 45.1772 42.438 45.4917 42.2563C45.78 42.0747 45.9634 41.7634 46.042 41.3482C46.0682 41.1147 46.042 40.9331 45.9896 40.7774C45.911 40.6217 45.8324 40.518 45.7014 40.4401C45.5703 40.3623 45.4131 40.3104 45.2296 40.2844C45.0462 40.2585 44.8628 40.2325 44.6531 40.2325H43.1594L42.8449 42.5417Z"
    fill="white"
  />
  <path
    d="M53.6179 48.15L53.7489 47.2159H53.7227C53.4868 47.5792 53.1724 47.8386 52.7531 48.0202C52.3338 48.2019 51.8883 48.3056 51.4428 48.3056C51.0497 48.3056 50.6828 48.2538 50.3683 48.124C50.0539 47.9943 49.818 47.8386 49.6084 47.6051C49.4249 47.3975 49.2677 47.1121 49.1891 46.8008C49.1104 46.4894 49.0842 46.1521 49.1366 45.7629L49.7394 41.1445H51.6524L51.1545 45.0624C51.1283 45.3478 51.1021 45.6073 51.1283 45.8148C51.1283 46.0483 51.1807 46.23 51.2593 46.3856C51.338 46.5413 51.469 46.671 51.6262 46.7489C51.7835 46.8267 51.9931 46.8786 52.2552 46.8786C52.4386 46.8786 52.622 46.8527 52.8055 46.7748C52.9889 46.697 53.1724 46.5932 53.3296 46.4635C53.4868 46.3078 53.6441 46.1262 53.7489 45.8667C53.8799 45.6073 53.9586 45.2959 54.011 44.9327L54.5089 41.1445H56.4219L55.5047 48.15H53.6179Z"
    fill="white"
  />
  <path
    d="M62.3973 42.7772C62.0566 42.6474 61.716 42.5436 61.4015 42.4918C61.087 42.4399 60.7987 42.4139 60.5105 42.4139C60.2222 42.4139 60.0126 42.4658 59.8291 42.5436C59.6457 42.6215 59.5409 42.7772 59.5146 42.9847C59.4884 43.1923 59.5671 43.348 59.7243 43.4777C59.8815 43.6074 60.2222 43.7372 60.7201 43.8928C61.087 43.9966 61.4015 44.1264 61.6635 44.282C61.9256 44.4118 62.1615 44.5674 62.3449 44.7491C62.5283 44.9307 62.6594 45.1383 62.738 45.3718C62.8166 45.6053 62.8166 45.8647 62.7904 46.1761C62.738 46.5653 62.607 46.9026 62.3973 47.188C62.1877 47.4734 61.9256 47.681 61.6373 47.8366C61.3491 47.9923 61.0084 48.122 60.6415 48.1999C60.2746 48.2777 59.9339 48.3037 59.5671 48.3037C59.1216 48.3037 58.6761 48.2518 58.2043 48.1739C57.7326 48.0961 57.3395 47.9664 56.9727 47.8107L57.523 46.3837C57.8899 46.5393 58.283 46.6691 58.6761 46.7729C59.0691 46.8507 59.436 46.9026 59.7243 46.9026C60.0912 46.9026 60.3794 46.8507 60.5891 46.7729C60.7987 46.6691 60.9036 46.5134 60.956 46.2799C60.9822 46.0723 60.9036 45.9166 60.6939 45.761C60.4843 45.6312 60.1174 45.4756 59.5933 45.2939C58.8595 45.0345 58.3616 44.7491 58.0471 44.4118C57.7588 44.0745 57.6278 43.6593 57.7064 43.1404C57.7588 42.7512 57.8899 42.4399 58.0733 42.1545C58.2568 41.8691 58.4926 41.6615 58.7809 41.4799C59.0691 41.2982 59.3836 41.1685 59.7243 41.0907C60.065 41.0128 60.4057 40.9609 60.7463 40.9609C61.1132 40.9609 61.5063 40.9869 61.8994 41.0647C62.2925 41.1426 62.6594 41.2204 63 41.3501L62.3973 42.7772Z"
    fill="white"
  />
  <path d="M66.7455 41.1398L65.8282 48.1452H63.9414L64.8586 41.1398H66.7455ZM67.1123 38.4414L66.9027 40.076H64.9896L65.1993 38.4414H67.1123Z" fill="white" />
  <path
    d="M70.4955 41.144L70.3644 42.078H70.3906C70.6265 41.7148 70.941 41.4553 71.3603 41.2737C71.7796 41.0921 72.2251 40.9883 72.6706 40.9883C73.0636 40.9883 73.4305 41.0402 73.745 41.1699C74.0595 41.2996 74.2953 41.4553 74.505 41.6888C74.7146 41.9223 74.8457 42.1818 74.9243 42.4931C75.0029 42.8045 75.0291 43.1418 74.9767 43.531L74.374 48.1494H72.4609L72.9588 44.2315C72.985 43.9461 73.0112 43.6867 73.0112 43.4532C73.0112 43.2196 72.9588 43.038 72.8802 42.8823C72.8016 42.7267 72.6706 42.6229 72.5133 42.5191C72.3561 42.4413 72.1464 42.3894 71.8844 42.3894C71.7009 42.3894 71.5175 42.4153 71.3341 42.4931C71.1506 42.571 70.9672 42.6748 70.8099 42.8304C70.6265 42.9861 70.4955 43.1937 70.3644 43.4532C70.2334 43.7126 70.1548 43.998 70.1024 44.3613L69.6045 48.1494H67.6914L68.6086 41.144H70.4955Z"
    fill="white"
  />
  <path
    d="M78.1181 45.2178C78.1181 45.5291 78.1705 45.7886 78.2753 45.9962C78.3801 46.2037 78.5112 46.3853 78.7208 46.5151C78.9042 46.6448 79.1401 46.7486 79.4022 46.8264C79.6642 46.9043 79.9525 46.9302 80.2408 46.9302C80.5028 46.9302 80.7911 46.9043 81.1056 46.8783C81.42 46.8264 81.7083 46.7745 81.9704 46.6967L81.9966 48.0718C81.6821 48.1497 81.3414 48.2275 80.9745 48.2794C80.6338 48.3313 80.2408 48.3573 79.8215 48.3573C79.1925 48.3573 78.6422 48.2794 78.1705 48.0978C77.6988 47.9162 77.3057 47.6827 77.0174 47.3454C76.7291 47.034 76.5195 46.6448 76.3885 46.2037C76.2574 45.7626 76.2312 45.2697 76.3098 44.7248C76.3885 44.2059 76.5195 43.7129 76.7553 43.2459C76.9912 42.8048 77.2533 42.4156 77.6202 42.0783C77.9608 41.741 78.3801 41.5075 78.8256 41.3259C79.2973 41.1442 79.7953 41.0664 80.3456 41.0664C80.8697 41.0664 81.3152 41.1442 81.6821 41.2999C82.049 41.4556 82.3634 41.6891 82.5993 42.0005C82.8352 42.3118 82.9924 42.6751 83.071 43.0902C83.1496 43.5053 83.1496 43.9983 83.0972 44.5172L82.9924 45.2697H78.1181V45.2178ZM80.1359 42.2599C79.6904 42.2599 79.2973 42.4156 78.9567 42.701C78.616 43.0124 78.4063 43.4016 78.2753 43.8945H81.3414C81.42 43.4016 81.3414 43.0124 81.1056 42.701C80.8959 42.4156 80.5814 42.2599 80.1359 42.2599Z"
    fill="white"
  />
  <path
    d="M89.1239 42.7772C88.7832 42.6474 88.4425 42.5436 88.128 42.4918C87.8136 42.4399 87.5253 42.4139 87.237 42.4139C86.9488 42.4139 86.7391 42.4658 86.5557 42.5436C86.3722 42.6215 86.2674 42.7772 86.2412 42.9847C86.215 43.1923 86.2936 43.348 86.4509 43.4777C86.6081 43.6074 86.9488 43.7372 87.4467 43.8928C87.8136 43.9966 88.128 44.1264 88.3901 44.282C88.6522 44.4118 88.888 44.5674 89.0715 44.7491C89.2549 44.9307 89.3859 45.1383 89.4646 45.3718C89.5432 45.6053 89.5432 45.8647 89.517 46.1761C89.4646 46.5653 89.3335 46.9026 89.1239 47.188C88.9142 47.4734 88.6522 47.681 88.3639 47.8366C88.0756 47.9923 87.735 48.122 87.3681 48.1999C87.0012 48.2777 86.6605 48.3037 86.2936 48.3037C85.8481 48.3037 85.4026 48.2518 84.9309 48.1739C84.4592 48.0961 84.0661 47.9664 83.6992 47.8107L84.2495 46.3837C84.6164 46.5393 85.0095 46.6691 85.4026 46.7729C85.7957 46.8507 86.1626 46.9026 86.4509 46.9026C86.8177 46.9026 87.106 46.8507 87.3157 46.7729C87.5253 46.6691 87.6301 46.5134 87.6825 46.2799C87.7087 46.0723 87.6301 45.9166 87.4205 45.761C87.2108 45.6312 86.8439 45.4756 86.3198 45.2939C85.5861 45.0345 85.0881 44.7491 84.7737 44.4118C84.4854 44.0745 84.3544 43.6593 84.433 43.1404C84.4854 42.7512 84.6164 42.4399 84.7999 42.1545C84.9833 41.8691 85.2192 41.6615 85.5074 41.4799C85.7957 41.2982 86.1102 41.1685 86.4509 41.0907C86.7915 41.0128 87.1322 40.9609 87.4729 40.9609C87.8398 40.9609 88.2329 40.9869 88.626 41.0647C89.0191 41.1426 89.3859 41.2204 89.7266 41.3501L89.1239 42.7772Z"
    fill="white"
  />
  <path
    d="M95.5731 42.7772C95.2324 42.6474 94.8917 42.5436 94.5773 42.4918C94.2628 42.4399 93.9745 42.4139 93.6863 42.4139C93.398 42.4139 93.1883 42.4658 93.0049 42.5436C92.8215 42.6215 92.7166 42.7772 92.6904 42.9847C92.6642 43.1923 92.7428 43.348 92.9001 43.4777C93.0573 43.6074 93.398 43.7372 93.8959 43.8928C94.2628 43.9966 94.5773 44.1264 94.8393 44.282C95.1014 44.4118 95.3372 44.5674 95.5207 44.7491C95.7041 44.9307 95.8352 45.1383 95.9138 45.3718C95.9924 45.6053 95.9924 45.8647 95.9662 46.1761C95.9138 46.5653 95.7827 46.9026 95.5731 47.188C95.3634 47.4734 95.1014 47.681 94.8131 47.8366C94.5248 47.9923 94.1842 48.122 93.8173 48.1999C93.4504 48.2777 93.1097 48.3037 92.7428 48.3037C92.2973 48.3037 91.8518 48.2518 91.3801 48.1739C90.9084 48.0961 90.4891 47.9664 90.1484 47.8107L90.6988 46.3837C91.0657 46.5393 91.4587 46.6691 91.8518 46.7729C92.2449 46.8766 92.6118 46.9026 92.9001 46.9026C93.267 46.9026 93.5552 46.8507 93.7649 46.7729C93.9745 46.6691 94.1056 46.5134 94.1318 46.2799C94.158 46.0723 94.0793 45.9166 93.8697 45.761C93.6601 45.6312 93.2932 45.4756 92.769 45.2939C92.0353 45.0345 91.5374 44.7491 91.2229 44.4118C90.9346 44.0745 90.8036 43.6593 90.8822 43.1404C90.9346 42.7512 91.0657 42.4399 91.2491 42.1545C91.4325 41.8691 91.6684 41.6615 91.9567 41.4799C92.2449 41.2982 92.5594 41.1685 92.9001 41.0907C93.2408 41.0128 93.5814 40.9609 93.9221 40.9609C94.289 40.9609 94.6821 40.9869 95.1014 41.0647C95.4945 41.1426 95.8614 41.2204 96.202 41.3501L95.5731 42.7772Z"
    fill="white"
  />
  <path
    d="M108.097 40.4161C107.861 40.3123 107.573 40.2345 107.285 40.1826C106.997 40.1307 106.708 40.0788 106.42 40.0788C105.922 40.0788 105.45 40.1566 105.031 40.3383C104.612 40.5199 104.271 40.7534 103.983 41.0648C103.695 41.3761 103.459 41.7394 103.275 42.1285C103.092 42.5437 102.961 42.9848 102.908 43.4258C102.856 43.8669 102.856 44.2821 102.935 44.6713C103.013 45.0604 103.144 45.4237 103.38 45.735C103.59 46.0464 103.878 46.2799 104.245 46.4615C104.612 46.6432 105.031 46.721 105.529 46.721C105.896 46.721 106.21 46.695 106.525 46.6172C106.839 46.5653 107.128 46.4615 107.39 46.3578L107.521 47.8626C107.154 47.9924 106.787 48.0961 106.368 48.174C105.948 48.2518 105.529 48.2778 105.11 48.2778C104.376 48.2778 103.747 48.148 103.197 47.9145C102.646 47.681 102.175 47.3437 101.808 46.9026C101.441 46.4615 101.179 45.9686 101.048 45.3718C100.891 44.775 100.864 44.1264 100.969 43.3999C101.074 42.6734 101.257 42.0248 101.546 41.428C101.834 40.8312 102.227 40.3123 102.699 39.8712C103.17 39.4302 103.721 39.0929 104.376 38.8593C105.005 38.6258 105.712 38.4961 106.472 38.4961C106.892 38.4961 107.311 38.522 107.678 38.5999C108.045 38.6518 108.385 38.7556 108.674 38.8853L108.097 40.4161Z"
    fill="white"
  />
  <path
    d="M110.591 45.2178C110.591 45.5291 110.643 45.7886 110.748 45.9962C110.853 46.2037 110.984 46.3853 111.193 46.5151C111.377 46.6448 111.613 46.7486 111.875 46.8264C112.137 46.9043 112.425 46.9302 112.713 46.9302C112.975 46.9302 113.264 46.9043 113.578 46.8783C113.893 46.8264 114.181 46.7745 114.443 46.6967L114.469 48.0718C114.155 48.1497 113.814 48.2275 113.447 48.2794C113.107 48.3313 112.713 48.3573 112.294 48.3573C111.665 48.3573 111.115 48.2794 110.643 48.0978C110.171 47.9162 109.778 47.6827 109.49 47.3454C109.202 47.034 108.992 46.6448 108.861 46.2037C108.73 45.7626 108.704 45.2697 108.783 44.7248C108.861 44.2059 108.992 43.7129 109.228 43.2459C109.464 42.8048 109.726 42.4156 110.093 42.0783C110.433 41.741 110.853 41.5075 111.298 41.3259C111.77 41.1442 112.268 41.0664 112.818 41.0664C113.342 41.0664 113.788 41.1442 114.155 41.2999C114.522 41.4556 114.836 41.6891 115.072 42.0005C115.308 42.3118 115.465 42.6751 115.544 43.0902C115.622 43.5053 115.622 43.9983 115.57 44.5172L115.465 45.2697H110.591V45.2178ZM112.609 42.2599C112.163 42.2599 111.77 42.4156 111.429 42.701C111.089 43.0124 110.879 43.4016 110.748 43.8945H113.814C113.893 43.4016 113.814 43.0124 113.578 42.701C113.395 42.4156 113.054 42.2599 112.609 42.2599Z"
    fill="white"
  />
  <path
    d="M119.343 41.144L119.212 42.078H119.238C119.474 41.7148 119.789 41.4553 120.208 41.2737C120.627 41.0921 121.073 40.9883 121.518 40.9883C121.911 40.9883 122.278 41.0402 122.593 41.1699C122.907 41.2996 123.143 41.4553 123.353 41.6888C123.562 41.9223 123.693 42.1818 123.772 42.4931C123.851 42.8045 123.877 43.1418 123.824 43.531L123.222 48.1494H121.309L121.806 44.2315C121.833 43.9461 121.859 43.6867 121.859 43.4532C121.859 43.2196 121.806 43.038 121.728 42.8823C121.649 42.7267 121.518 42.6229 121.361 42.5191C121.204 42.4413 120.994 42.3894 120.732 42.3894C120.549 42.3894 120.365 42.4153 120.182 42.4931C119.998 42.571 119.815 42.6748 119.658 42.8304C119.474 42.9861 119.343 43.1937 119.212 43.4532C119.081 43.7126 119.002 43.998 118.95 44.3613L118.452 48.1494H116.539L117.456 41.144H119.343Z"
    fill="white"
  />
  <path d="M125.137 41.1455H126.212L126.447 39.2773H128.36L128.125 41.1455H129.592L129.409 42.5725H127.941L127.522 45.712C127.496 45.9455 127.469 46.153 127.469 46.2828C127.469 46.4385 127.496 46.5422 127.548 46.6201C127.6 46.6979 127.679 46.7498 127.758 46.7758C127.862 46.8017 127.994 46.8276 128.151 46.8276C128.256 46.8276 128.36 46.8276 128.465 46.8017C128.57 46.8017 128.675 46.7758 128.78 46.7498L128.596 48.1509C128.413 48.1768 128.203 48.1768 127.994 48.2028C127.784 48.2287 127.574 48.2287 127.338 48.2287C126.893 48.2287 126.526 48.1768 126.264 48.099C126.002 48.0212 125.818 47.8914 125.687 47.7098C125.556 47.5541 125.478 47.3206 125.452 47.0871C125.425 46.8276 125.452 46.5422 125.478 46.2049L125.949 42.5725H124.875L125.137 41.1455Z" fill="white" />
  <path
    d="M131.763 45.2178C131.763 45.5291 131.815 45.7886 131.92 45.9962C132.025 46.2037 132.156 46.3853 132.365 46.5151C132.549 46.6448 132.785 46.7486 133.047 46.8264C133.309 46.9043 133.597 46.9302 133.885 46.9302C134.147 46.9302 134.436 46.9043 134.75 46.8783C135.065 46.8264 135.353 46.7745 135.615 46.6967L135.641 48.0718C135.327 48.1497 134.986 48.2275 134.619 48.2794C134.278 48.3313 133.885 48.3573 133.466 48.3573C132.837 48.3573 132.287 48.2794 131.815 48.0978C131.343 47.9162 130.95 47.6827 130.662 47.3454C130.374 47.034 130.164 46.6448 130.033 46.2037C129.902 45.7626 129.876 45.2697 129.954 44.7248C130.033 44.2059 130.164 43.7129 130.4 43.2459C130.636 42.8048 130.898 42.4156 131.265 42.0783C131.605 41.741 132.025 41.5075 132.47 41.3259C132.942 41.1442 133.44 41.0664 133.99 41.0664C134.514 41.0664 134.96 41.1442 135.327 41.2999C135.694 41.4556 136.008 41.6891 136.244 42.0005C136.48 42.3118 136.637 42.6751 136.716 43.0902C136.794 43.5053 136.794 43.9983 136.742 44.5172L136.637 45.2697H131.763V45.2178ZM133.78 42.2599C133.335 42.2599 132.942 42.4156 132.601 42.701C132.261 43.0124 132.051 43.4016 131.92 43.8945H134.986C135.065 43.4016 134.986 43.0124 134.75 42.701C134.54 42.4156 134.2 42.2599 133.78 42.2599Z"
    fill="white"
  />
  <path d="M142.613 42.4658C142.534 42.4399 142.43 42.4399 142.351 42.4139C142.272 42.4139 142.168 42.388 142.063 42.388C141.827 42.388 141.617 42.4399 141.381 42.5177C141.172 42.5955 140.962 42.7253 140.779 42.9069C140.595 43.0885 140.438 43.348 140.307 43.6334C140.176 43.9447 140.097 44.308 140.019 44.7491L139.573 48.1221H137.66L138.577 41.1166H140.438L140.307 42.0247H140.333C140.779 41.2982 141.434 40.9609 142.325 40.9609C142.403 40.9609 142.508 40.9609 142.587 40.9609C142.666 40.9609 142.77 40.9609 142.849 40.9869L142.613 42.4658Z" fill="white" />
</svg>